<mxfile host="app.diagrams.net" modified="2023-05-15T16:52:05.619Z" agent="Mozilla/5.0 (Windows NT 10.0; Win64; x64) AppleWebKit/537.36 (KHTML, like Gecko) Chrome/113.0.0.0 Safari/537.36" etag="C0uKc6hyhFWUwQ900GI-" version="21.1.6" type="github">
  <diagram name="第 1 页" id="l4yErSQxhzdLG04j9Lua">
    <mxGraphModel dx="744" dy="418" grid="1" gridSize="10" guides="1" tooltips="1" connect="1" arrows="1" fold="1" page="1" pageScale="1" pageWidth="827" pageHeight="1169" math="0" shadow="0">
      <root>
        <mxCell id="0" />
        <mxCell id="1" parent="0" />
        <mxCell id="YeJuPSAKMm3noln3CgYI-20" value="" style="edgeStyle=orthogonalEdgeStyle;rounded=0;orthogonalLoop=1;jettySize=auto;html=1;entryX=0;entryY=0.5;entryDx=0;entryDy=0;" edge="1" parent="1" source="YeJuPSAKMm3noln3CgYI-7" target="YeJuPSAKMm3noln3CgYI-8">
          <mxGeometry relative="1" as="geometry" />
        </mxCell>
        <mxCell id="YeJuPSAKMm3noln3CgYI-7" value="总结与系统设计" style="rounded=0;whiteSpace=wrap;html=1;" vertex="1" parent="1">
          <mxGeometry x="290" y="540" width="70" height="60" as="geometry" />
        </mxCell>
        <mxCell id="YeJuPSAKMm3noln3CgYI-21" value="" style="edgeStyle=orthogonalEdgeStyle;rounded=0;orthogonalLoop=1;jettySize=auto;html=1;entryX=0;entryY=0.5;entryDx=0;entryDy=0;" edge="1" parent="1" source="YeJuPSAKMm3noln3CgYI-8" target="YeJuPSAKMm3noln3CgYI-9">
          <mxGeometry relative="1" as="geometry" />
        </mxCell>
        <mxCell id="YeJuPSAKMm3noln3CgYI-8" value="构件与接口设计" style="rounded=0;whiteSpace=wrap;html=1;" vertex="1" parent="1">
          <mxGeometry x="390" y="540" width="70" height="60" as="geometry" />
        </mxCell>
        <mxCell id="YeJuPSAKMm3noln3CgYI-22" style="edgeStyle=orthogonalEdgeStyle;rounded=0;orthogonalLoop=1;jettySize=auto;html=1;exitX=1;exitY=0.5;exitDx=0;exitDy=0;entryX=0;entryY=0.5;entryDx=0;entryDy=0;" edge="1" parent="1" source="YeJuPSAKMm3noln3CgYI-9" target="YeJuPSAKMm3noln3CgYI-10">
          <mxGeometry relative="1" as="geometry" />
        </mxCell>
        <mxCell id="YeJuPSAKMm3noln3CgYI-9" value="代码编写与测试" style="rounded=0;whiteSpace=wrap;html=1;" vertex="1" parent="1">
          <mxGeometry x="490" y="540" width="70" height="60" as="geometry" />
        </mxCell>
        <mxCell id="YeJuPSAKMm3noln3CgYI-10" value="部署运营" style="rounded=0;whiteSpace=wrap;html=1;" vertex="1" parent="1">
          <mxGeometry x="590" y="540" width="70" height="60" as="geometry" />
        </mxCell>
        <mxCell id="YeJuPSAKMm3noln3CgYI-18" value="" style="edgeStyle=orthogonalEdgeStyle;rounded=0;orthogonalLoop=1;jettySize=auto;html=1;entryX=0;entryY=0.5;entryDx=0;entryDy=0;" edge="1" parent="1" source="YeJuPSAKMm3noln3CgYI-6" target="YeJuPSAKMm3noln3CgYI-16">
          <mxGeometry relative="1" as="geometry">
            <mxPoint x="440" y="420" as="targetPoint" />
          </mxGeometry>
        </mxCell>
        <mxCell id="YeJuPSAKMm3noln3CgYI-6" value="需求分析" style="rounded=0;whiteSpace=wrap;html=1;" vertex="1" parent="1">
          <mxGeometry x="290" y="390" width="70" height="60" as="geometry" />
        </mxCell>
        <mxCell id="YeJuPSAKMm3noln3CgYI-19" value="" style="edgeStyle=orthogonalEdgeStyle;rounded=0;orthogonalLoop=1;jettySize=auto;html=1;entryX=0;entryY=0.5;entryDx=0;entryDy=0;" edge="1" parent="1" source="YeJuPSAKMm3noln3CgYI-16" target="YeJuPSAKMm3noln3CgYI-17">
          <mxGeometry relative="1" as="geometry" />
        </mxCell>
        <mxCell id="YeJuPSAKMm3noln3CgYI-16" value="初步设计" style="rounded=0;whiteSpace=wrap;html=1;" vertex="1" parent="1">
          <mxGeometry x="437.5" y="390" width="70" height="60" as="geometry" />
        </mxCell>
        <mxCell id="YeJuPSAKMm3noln3CgYI-17" value="初步实现" style="rounded=0;whiteSpace=wrap;html=1;" vertex="1" parent="1">
          <mxGeometry x="590" y="390" width="70" height="60" as="geometry" />
        </mxCell>
        <mxCell id="YeJuPSAKMm3noln3CgYI-35" style="edgeStyle=orthogonalEdgeStyle;rounded=0;orthogonalLoop=1;jettySize=auto;html=1;exitX=1;exitY=0.5;exitDx=0;exitDy=0;entryX=0;entryY=0.5;entryDx=0;entryDy=0;" edge="1" parent="1" source="YeJuPSAKMm3noln3CgYI-25" target="YeJuPSAKMm3noln3CgYI-27">
          <mxGeometry relative="1" as="geometry" />
        </mxCell>
        <mxCell id="YeJuPSAKMm3noln3CgYI-25" value="数据处理" style="rounded=0;whiteSpace=wrap;html=1;" vertex="1" parent="1">
          <mxGeometry x="280" y="690" width="70" height="60" as="geometry" />
        </mxCell>
        <mxCell id="YeJuPSAKMm3noln3CgYI-34" style="edgeStyle=orthogonalEdgeStyle;rounded=0;orthogonalLoop=1;jettySize=auto;html=1;exitX=1;exitY=0.5;exitDx=0;exitDy=0;entryX=0;entryY=0.5;entryDx=0;entryDy=0;" edge="1" parent="1" source="YeJuPSAKMm3noln3CgYI-27" target="YeJuPSAKMm3noln3CgYI-29">
          <mxGeometry relative="1" as="geometry" />
        </mxCell>
        <mxCell id="YeJuPSAKMm3noln3CgYI-27" value="选取算法与框架" style="rounded=0;whiteSpace=wrap;html=1;" vertex="1" parent="1">
          <mxGeometry x="360" y="690" width="70" height="60" as="geometry" />
        </mxCell>
        <mxCell id="YeJuPSAKMm3noln3CgYI-31" value="" style="edgeStyle=orthogonalEdgeStyle;rounded=0;orthogonalLoop=1;jettySize=auto;html=1;" edge="1" parent="1" source="YeJuPSAKMm3noln3CgYI-29" target="YeJuPSAKMm3noln3CgYI-30">
          <mxGeometry relative="1" as="geometry" />
        </mxCell>
        <mxCell id="YeJuPSAKMm3noln3CgYI-29" value="模型训练&amp;nbsp;" style="rounded=0;whiteSpace=wrap;html=1;" vertex="1" parent="1">
          <mxGeometry x="440" y="690" width="70" height="60" as="geometry" />
        </mxCell>
        <mxCell id="YeJuPSAKMm3noln3CgYI-33" value="" style="edgeStyle=orthogonalEdgeStyle;rounded=0;orthogonalLoop=1;jettySize=auto;html=1;" edge="1" parent="1" source="YeJuPSAKMm3noln3CgYI-30" target="YeJuPSAKMm3noln3CgYI-32">
          <mxGeometry relative="1" as="geometry" />
        </mxCell>
        <mxCell id="YeJuPSAKMm3noln3CgYI-36" style="edgeStyle=orthogonalEdgeStyle;rounded=0;orthogonalLoop=1;jettySize=auto;html=1;entryX=0.5;entryY=0;entryDx=0;entryDy=0;exitX=0.5;exitY=0;exitDx=0;exitDy=0;" edge="1" parent="1" source="YeJuPSAKMm3noln3CgYI-30" target="YeJuPSAKMm3noln3CgYI-29">
          <mxGeometry relative="1" as="geometry">
            <mxPoint x="555" y="690" as="sourcePoint" />
            <mxPoint x="480" y="690" as="targetPoint" />
            <Array as="points">
              <mxPoint x="555" y="670" />
              <mxPoint x="475" y="670" />
            </Array>
          </mxGeometry>
        </mxCell>
        <mxCell id="YeJuPSAKMm3noln3CgYI-30" value="模型评估" style="rounded=0;whiteSpace=wrap;html=1;" vertex="1" parent="1">
          <mxGeometry x="520" y="690" width="70" height="60" as="geometry" />
        </mxCell>
        <mxCell id="YeJuPSAKMm3noln3CgYI-32" value="模型部署" style="rounded=0;whiteSpace=wrap;html=1;" vertex="1" parent="1">
          <mxGeometry x="600" y="690" width="70" height="60" as="geometry" />
        </mxCell>
      </root>
    </mxGraphModel>
  </diagram>
</mxfile>
